<svg xmlns="http://www.w3.org/2000/svg"  viewBox="0 0 60 40.39"><defs><style>.cls-1{fill:#004874;}.cls-2{fill:#004874;}</style></defs><title>Special-tours-color</title><g id="Layer_2" data-name="Layer 2"><g id="Layer_1-2" data-name="Layer 1"><path class="cls-1" d="M20.86,7c-.14-.48-.65-.74-.9-1.26s-.38-.35-.54-.88a1.64,1.64,0,0,0-.12-.29,1.34,1.34,0,0,1-.09-.21,1.72,1.72,0,0,1,0-.32c0-.17-.1-.11-.18-.27s-.28-.48-.36-.61S18,2.51,18,2.25s.6-.45.81-.65a.72.72,0,0,1,.75-.19,2.14,2.14,0,0,1,.68.41c.26.21.58.17.87.46A10.67,10.67,0,0,0,23.29,3.7l.15.18-.08-.36a2.23,2.23,0,0,0-.2-.81A8.84,8.84,0,0,1,22.39.6a.57.57,0,0,1,.22-.35,1.33,1.33,0,0,1,1-.23,13.18,13.18,0,0,1,.52,2,8.06,8.06,0,0,0,.45,2.15c.07.15.29,1.1.39,1.27a2.37,2.37,0,0,1,.2.75c-.07.48-.86.37-.68.35h-.17A1.89,1.89,0,0,1,23.42,6a3.12,3.12,0,0,0-.53-.42c-.22-.5-.5-1.06-.94-1.12l-.34-.32-.45-.3c-.15,0-.59-.3-.66-.18s.35.74.4.89a6.05,6.05,0,0,0,.72,1.11A9.76,9.76,0,0,1,22.42,7a1.15,1.15,0,0,1-1.06.68Z"/><path class="cls-1" d="M55.23,25.07a3.64,3.64,0,0,1-.7-1.36c0-.23-.46-.89-.51-1.12a.6.6,0,0,0-.19-.3s-.23-.4-.36-.61a3,3,0,0,1-.26-.83c-.09-.39,0-.52-.38-.91,0-.42.34-.59,1.13-1A6,6,0,0,0,55,18.52c.25-.12.58-.09.82-.24a1.31,1.31,0,0,1,1-.3c.07,0,.28.31.28.31.09.47.26.65,0,.83a5.81,5.81,0,0,1-1.42.41,5.84,5.84,0,0,0-1.26.46c-.32.32,0,.68.25,1.17l.13.28h.12a1.36,1.36,0,0,0,.73-.16c.24-.09,1-.33,1.2-.4s.51.77.54.84c-.07.25-.1.21-.46.29a3.21,3.21,0,0,0-.43.12,1.9,1.9,0,0,0-.36.2c-.16.11-.27.17-.38.16l-.26.16c0,.45,0,1.06.36,1.34l.1.08.11-.07a2.31,2.31,0,0,1,.53-.23,4.64,4.64,0,0,0,.75-.38.78.78,0,0,1,.11-.09.8.8,0,0,0,.3,0,1.26,1.26,0,0,0,.36-.19.65.65,0,0,1,.17-.1h.09c.21,0,.32.3.33.87,0,0-.75.81-1.19.75,0,0-.87.21-1.3.37a2.06,2.06,0,0,1-.92.23Z"/><path class="cls-1" d="M46.63,37a.87.87,0,0,1-.48.08,1.37,1.37,0,0,1-.58-.28,1.2,1.2,0,0,0-.49-.24h-.22l-.05-.1A2.89,2.89,0,0,1,44.9,34a7.23,7.23,0,0,0,.25-.77l0-.17.17,0,.46.08.32,0a2.58,2.58,0,0,1,1.68.7l.1.11-.09.12a2.33,2.33,0,0,0-.28.93c0,.2-.06.39-.11.57-.11.41-.46,1.24-.8,1.4m1.31-4.33-.05.07H47.8l-.31,0a4.42,4.42,0,0,1-.47-.1l-.28-.06-.16,0c-.34-.06-.76-.14-.89-.42a.54.54,0,0,1,0-.41,1,1,0,0,0,0-.18A18.49,18.49,0,0,1,46,29.65l0-.12.12,0a7.57,7.57,0,0,1,1.69,0l.54,0,0,.09a1.61,1.61,0,0,1-.11,1.45,2.84,2.84,0,0,0-.19.53,1.74,1.74,0,0,0,0,.34,1.16,1.16,0,0,1-.19.73m.72-4.53v.1l-.08.05a3.75,3.75,0,0,1-2.19.5h-.12l0-.11-.07-.18c-.09-.26-.21-.55,0-.79a.44.44,0,0,0,.15-.16l0-.06.07,0a4.32,4.32,0,0,0,.56-.23,3.13,3.13,0,0,1,1.32-.4h.08l0,.07a1.3,1.3,0,0,1,.2,1,1.9,1.9,0,0,0,0,.28m.41-3.05c-2.6,1.2-4.71,2.18-6.43,3-.41.2-.84.37-1.27.54s-.72.29-1.07.45-.89.43-1.33.65l-.91.45-.54.27a6.34,6.34,0,0,1-1.66.67h-.09c-.36-.12-.33-.44-.31-.66a1,1,0,0,0,0-.31,2.88,2.88,0,0,0-.16-.51c-.14-.35-.47-.66-.17-1.07l.21-.11,0,0a3.09,3.09,0,0,1,1-.17,3.5,3.5,0,0,0,.73-.09c.91-.24,1.88-.59,2.9-1,.72-.26,1.46-.53,2.21-.77L43.77,26a33,33,0,0,0,3.66-1.25c.17-.08.34-.06.51-.14.54-.28,1-.21,1.75-.53l.17,0,0,.08a.56.56,0,0,1,0,.46c-.11.26-.42.38-.68.48l-.18.07m-1.62-2,0,.07a1.15,1.15,0,0,1-.94.54,7.32,7.32,0,0,1-1.66.13l-.11,0,0-.1a1.55,1.55,0,0,1,0-.55,1.47,1.47,0,0,0,0-.28V22.8l0-.05a2.74,2.74,0,0,1,2-.91h.08l.06.05a2.63,2.63,0,0,1,.6,1.14Zm-.91-2.21a2.91,2.91,0,0,1-1.53.93,7.93,7.93,0,0,0-.79.33l-.1.05L43.9,22A4.63,4.63,0,0,1,42,19.8v-.08a1.06,1.06,0,0,1,.21-.42.87.87,0,0,0,.15-.24l0-.07.07,0a3,3,0,0,0,.48-.38A1.51,1.51,0,0,1,44.1,18a.67.67,0,0,1,.18.06,5.23,5.23,0,0,1,1.07,1.28,2.38,2.38,0,0,0,1,.84l.16.46ZM40.9,24.44a14.23,14.23,0,0,1,.71-3.28l0-.06.06,0A.45.45,0,0,1,42,21c.29,0,.55.34.78.61l.13.15a6,6,0,0,1,1.28,1.92.57.57,0,0,1-.22.44.5.5,0,0,0-.11.13l0,.09-.5.11a4.71,4.71,0,0,1-1.83.06c-.08,0-.39.14-.46.12l-.15,0Zm1.64-6.72-.06.08c-.11.15-1,1.24-1.47,1.29h-.13a1.88,1.88,0,0,1-.83-.55,3.47,3.47,0,0,0-.52-.43,2.91,2.91,0,0,0-.51-.23,1.31,1.31,0,0,1-.92-.77l0-.12.1-.08a.72.72,0,0,0,.2-.39,1,1,0,0,1,.32-.57l0-.07c.1-.34.22-.75.7-.86a.66.66,0,0,1,.25,0,4.71,4.71,0,0,1,1.21.46,4.15,4.15,0,0,1,1.56,1.34,1.1,1.1,0,0,1,.07.59.5.5,0,0,0,0,.24Zm-5.32-1.37a1.13,1.13,0,0,1-.8.15,4,4,0,0,1-.61-.15,4.53,4.53,0,0,0-.48-.13l-.42-.07L34,16h0l0,0c-.4-.35-.22-.89,0-1.42a5.53,5.53,0,0,0,.18-.6l.36-.89.07,0a.85.85,0,0,1,.45,0,4.42,4.42,0,0,1,.74.19l.2.06.43.1c.67.15,1.51.34,1.74,1a2.68,2.68,0,0,1-.77,2.06M34.2,19c.18.35.35.71.53,1,.05.1.12.19.17.28a1.55,1.55,0,0,1,.36,1,3.15,3.15,0,0,1-.64,1.46,5.62,5.62,0,0,0-.42.72c-.92,2.09-1.17,1.83-1.33,1.81h-.09l0-.08a2.57,2.57,0,0,1-.21-1.3c0-.19-.13-.35-.14-.5a1,1,0,0,0-.06-.2,1.22,1.22,0,0,1-.08-.33,6.61,6.61,0,0,1,.05-.93,5,5,0,0,0,0-1,1.41,1.41,0,0,0-.09-.31,1.6,1.6,0,0,1-.1-.38,2.25,2.25,0,0,1,.08-.66,3.3,3.3,0,0,0,.1-.62c0-.2,0-.39,0-.58.15-1.54.55-1.63.55-1.63l.08.09A11.47,11.47,0,0,1,34.2,19M33.11,14l0,.2c0,.09,0,.18,0,.28,0,.44-.05.94-.59,1.18a2.07,2.07,0,0,1-.78,0,2,2,0,0,0-.28-.07h0s-.34-.21-.44-.18-.48.19-.51,0-1.31.15-1.41.09c-.48-.45-.65-.48-.55-.86s-.25-.16-.24-.45.15-1.57.13-1.72c-.09-.5,1.49-.19,2-.3a2.26,2.26,0,0,1,.84,0l.33,0h.28l.43,0a.89.89,0,0,1,.44.16A1.48,1.48,0,0,1,33.11,14m-1.28,3.87c-.16.18-.31.35-.35.41-.06.38-.27,1.27-.83,1.2a.7.7,0,0,1-.34-.18l0,0v-.07a4.07,4.07,0,0,0-.54-1.46,3.93,3.93,0,0,1-.53-1.41v-.12l.22-.17a4.62,4.62,0,0,1,2.3-.12c.47.06.93.18.85.37-.35.76-.27,1.1-.7,1.59m-.43,4.59,0,.07,0,.08c-.1.29.51,1.14.64,1.24l-.12,1.22c-.23.09-.43-.07-.67,0a2.67,2.67,0,0,0-1.13.42l0,0H30c-.58-.08-.89-1.42-1.25-3.16-.08-.37-.14-.69-.2-.89a6.82,6.82,0,0,0-.29-.77,6.71,6.71,0,0,1-.31-.84c-.06-.22-.11-.48-.15-.76a6.93,6.93,0,0,0-.3-1.26,1.1,1.1,0,0,0-.1-.18,1.52,1.52,0,0,1-.12-.21,11.54,11.54,0,0,1-.61-1.84,10.81,10.81,0,0,0-.49-1.54,1,1,0,0,0-.12-.18,1.19,1.19,0,0,1-.16-.24,2.94,2.94,0,0,1-.2-.55,3.22,3.22,0,0,0-.15-.43c-.08-.19-.74-1.87-.73-1.9a.69.69,0,0,1,.25-.32l.21-.07.08.1a7.28,7.28,0,0,1,1,1.95l.07.18h0c.44,1,3.22,6.84,5,9.84m-6.67-6.33.2.47-.3.2c-.14.37-.49.4-1,.34l-.18,0,0,0,0,0a4.44,4.44,0,0,1-.75-1.25c-.09-.19-.17-.37-.26-.54a1.22,1.22,0,0,0-.11-.17.67.67,0,0,1-.15-.76l0,0,0,0a5.19,5.19,0,0,1,1.4-.53l.08,0,.06,0a1.89,1.89,0,0,1,.68,1.55,1.24,1.24,0,0,1,.32.84m-2.7,0a2.34,2.34,0,0,0,.29.39,2,2,0,0,1,.51,1l0,.12-.11.06a1.73,1.73,0,0,0-.37.45,3.61,3.61,0,0,1-.29.38,3.76,3.76,0,0,1-1.5.86h-.15a.93.93,0,0,1-.72-.7l0,0c-.37-.38-1.13-1-.93-1.6a12.16,12.16,0,0,1,1.66-1.33.77.77,0,0,0,.14-.15.74.74,0,0,1,.56-.33h.2c.34,0,.47.34.6.63,0,.09.08.19.14.3m-2.27,3.94.06.08,0,.09a7.67,7.67,0,0,1-1.59,2.15l-.45.49h-.09a3.89,3.89,0,0,1-1.37-.56,6,6,0,0,0-.65-.34l-.07,0,0-.06a.81.81,0,0,0-.07-.12.82.82,0,0,1-.13-.34c0-.48,1-1.85,1.47-2.29A.59.59,0,0,1,17,19l.07,0a.7.7,0,0,0,.07-.13c0-.11.13-.29.32-.26h.25a3.46,3.46,0,0,1,2,1.47m-4.57,2.75a3.91,3.91,0,0,1,1.32.51c.18.1.36.19.55.28l.09,0,0,.09a1,1,0,0,1-.05.52.65.65,0,0,0,0,.33l0,.11-.09.07c-.19.14-.25.56-.32,1-.09.57-.19,1.21-.7,1.38a1,1,0,0,1-.43,0,3.55,3.55,0,0,1-.42-.1L14.9,27l-.1,0-.34,0A1.09,1.09,0,0,1,13.34,26a5.91,5.91,0,0,1,.79-2.67,1.42,1.42,0,0,1,.36-.29.81.81,0,0,0,.23-.18l.05-.08h.09l.32,0M13.36,28a.93.93,0,0,0,.22,0l.07-.07.07.1.1,0a.32.32,0,0,1,.13,0,.65.65,0,0,1,.22.09.23.23,0,0,0,.1,0h0a.35.35,0,0,1,.22-.06,3.94,3.94,0,0,1,.83.26.48.48,0,0,1,.11.21.78.78,0,0,0,.09.19,2.18,2.18,0,0,1,.19,1.47c0,.19,0,.37,0,.54l0,.25-.23-.08h-.07a.26.26,0,0,1-.13,0,3.12,3.12,0,0,1-1.65.17,3.69,3.69,0,0,1-.66-.15l-.09,0,0-.08a3.72,3.72,0,0,1,0-2.64l0-.07.07,0a1,1,0,0,1,.45-.07m-.44,4.24-.12-.2.22-.06a5.62,5.62,0,0,1,2.27-.33l.19,0,.24.06-.14.21a4.13,4.13,0,0,1-2.29,1.48l-.07,0-.06,0a1.11,1.11,0,0,1-.45-.75v-.08a.62.62,0,0,1,.15-.29s0,0,0-.07m4.68-7.47a10.23,10.23,0,0,1,.68-1.14c.14-.21.27-.41.4-.62l.1-.17c.33-.56.65-1.08,1-1.54a.66.66,0,0,1,.47-.29l.13,0,.06.13a18.26,18.26,0,0,1,1.25,3.8l0,.14-.13.05c-.57.23-1.25.44-2,.65s-1.34.4-2,.64l-.16.06-.06-.16a1.93,1.93,0,0,1,.2-1.54m.85,2.86-.21,0a1,1,0,0,1-.35,0,.62.62,0,0,1-.34-.17l-.19-.19.25-.11a21.94,21.94,0,0,1,2.17-.76c.45-.14.88-.27,1.28-.42l.16-.08a1.11,1.11,0,0,1,.37-.14.79.79,0,0,1,.24,0,3.35,3.35,0,0,1,1,.42l.4.21.65.3a9.73,9.73,0,0,0,1.65.65l.19.05-.07.18c-.17.42-.66.43-1,.43h-.12l-.45,0a4.35,4.35,0,0,1-.63,0h-.26c-.3,0-.65,0-.92,0l-1.94-.24-1.91-.23m-2,1.2c0-.08,0-.16,0-.24,0-.28,0-.53.13-.67a.46.46,0,0,1,.4-.09l.2,0,.07,0,0,.06a2.52,2.52,0,0,0,.74.73,3,3,0,0,1,1,1.08.42.42,0,0,0,.11.09.64.64,0,0,1,.22.18l0,0v.06c0,.69-.83,1.06-1.56,1.39l-.18.08-.2.1a.84.84,0,0,1-.53.15.63.63,0,0,1-.24-.09l-.06,0,0-.06a6.24,6.24,0,0,1-.17-2.17c0-.24,0-.47,0-.68m8.78-8.93a13,13,0,0,1-1.37-.09l-.71-.06H23a4.54,4.54,0,0,1-.52,0c-.15,0-.5.05-.57-.31,0-.18-.25-.87,2.85-1.81l.14,0,.07.14a3.69,3.69,0,0,1,.31,1.2,5.17,5.17,0,0,0,.15.8l.07.22Zm.22,2a15.9,15.9,0,0,0,.35,2.1l.16.77a1,1,0,0,1-.11.91l-.07.08-.11,0a2.7,2.7,0,0,1-1.19-1c-.11-.13-.22-.27-.34-.39s-.29-.29-.44-.43a5.94,5.94,0,0,1-.9-1,2.53,2.53,0,0,1-.77-.71,6.53,6.53,0,0,0-.45-.5,3.32,3.32,0,0,0-.28-.24,1.31,1.31,0,0,1-.36-.73c0-.14-.2-.34-.08-.55a.43.43,0,0,1,.26-.22,1,1,0,0,1,.36,0,2.1,2.1,0,0,1,.43.12,2.65,2.65,0,0,0,.53.15,3.67,3.67,0,0,0,.58,0,3.61,3.61,0,0,1,.57,0l.1,0a5.11,5.11,0,0,1,.61.19,3.29,3.29,0,0,0,.57.16h.29l.06.05a1.12,1.12,0,0,1,.22,1.2M13.37,34.43a10.88,10.88,0,0,1,2.18-1.21c.34-.16.69-.32,1-.5s.91-.5,1.36-.76a19.77,19.77,0,0,1,2.35-1.22l.73-.29c.6-.24,1.16-.46,1.71-.73l.48-.24a10.79,10.79,0,0,1,2.2-.91l.08,0,.06,0c.55.35.5.93.47,1.44a2.37,2.37,0,0,0,0,.92l.06.16-.16.06-.86.31a17.41,17.41,0,0,0-2.71,1.14l0,0h0a29.61,29.61,0,0,0-4.94,1.42c-1,.35-1.95.65-2.36.75a1.41,1.41,0,0,1-.33,0,1.75,1.75,0,0,0-.52.18,1.39,1.39,0,0,1-.31.18,4.8,4.8,0,0,1-1,.25l-.53.1-.21-.23c.18-.48.9-.79,1.29-.89m1.08,2.34,0,0,0,0a3.54,3.54,0,0,1,1.7-.27,5.38,5.38,0,0,0,.64,0H17l.06.05a1.11,1.11,0,0,1,.45,1l.13.28.18.82c-.63.39-.73.27-1.34.43H15.28s-.37-.56-.43-.63c-.36-.42-.22-1-.4-1.63M18,36.37a.52.52,0,0,1,.19-.41,3.26,3.26,0,0,1,2.05-.37h0l0,0c.34.28.26.58.17.93l-.06.23a2,2,0,0,0,0,.4,2,2,0,0,1,0,.34,1.06,1.06,0,0,1-.1.26.49.49,0,0,0,0,.48l0,.1-.07.08a.74.74,0,0,0-.23.49v.11H19.6l-.16-.23a9.32,9.32,0,0,1-.69-1.12,4.19,4.19,0,0,0-.36-.55,1.7,1.7,0,0,1-.42-.78m2.63,2.68a3.57,3.57,0,0,1,.15-.51c0-.09.06-.18.08-.24a15.51,15.51,0,0,1,.67-3l0,0,0,0a1,1,0,0,1,.8-.24,1.91,1.91,0,0,0,.31,0A10.18,10.18,0,0,0,24,34.73l.81-.2.53-.13a4.25,4.25,0,0,1,1.61-.22l.26,0-.06.2a1.84,1.84,0,0,1-.8.86l-.33.25a31.28,31.28,0,0,0-3.47,3.4l0,0,0,0a.94.94,0,0,0-.13.08Zm5.43,0a2.91,2.91,0,0,1,.33-.7,1.8,1.8,0,0,0,.12-.25c.06-.18.12-.37.17-.57a5.17,5.17,0,0,1,.47-1.25,4,4,0,0,1,.43-.57,1.79,1.79,0,0,0,.57-1.07v-.12l.37-.13.08.11a1,1,0,0,1,.13.64,1.07,1.07,0,0,0,.09.55l0,.06,0,.07A3.65,3.65,0,0,0,28.76,37a3.23,3.23,0,0,1-.15,1.45,4,4,0,0,1-.16.65Zm3.15-4.62h0l.2-.06.29.05c.14,0,.51.1.64.12a3,3,0,0,1,.46,0c.2.05.7,0,.9,0,.36.05,0-.06.3-.17l.17-.07.06.17c.56,1.59,1,3.13,1.39,4.54H31.41a5.62,5.62,0,0,1-.29-.64,4.21,4.21,0,0,0-.5-.88,4.32,4.32,0,0,1-.45-.79.74.74,0,0,1,0-.27.44.44,0,0,0,0-.12,5.53,5.53,0,0,0-.64-1.25c-.11-.18-.22-.35-.29-.48s0-.18,0-.18m4.43-2.32c-.14.15-.29.3-.4.45a1.42,1.42,0,0,0-.13.2,1,1,0,0,1-.27.34.85.85,0,0,1-.31.09.92.92,0,0,0-.47.19.92.92,0,0,1-.28.14.44.44,0,0,1-.16,0l-.12,0-.09,0h-.06l-.1,0a.89.89,0,0,1-.27.09H30.6l-.33,0a1.73,1.73,0,0,1-.47,0h-.45a1.44,1.44,0,0,1-.54-.26.93.93,0,0,0-.36-.18h-.18l-.06-.05a5,5,0,0,1-1.3-4.35v-.07l.06,0a1.33,1.33,0,0,0,.38-.49,1.48,1.48,0,0,1,.71-.74,2.23,2.23,0,0,1,1.63-1.06,6.32,6.32,0,0,1,1-.22A5.11,5.11,0,0,0,32,26.3l1.08.35a4,4,0,0,1,1,1.58,3.35,3.35,0,0,1,.21,3,3.45,3.45,0,0,1-.67.85M39.88,19.8l0,.12s-1.25.06-1.83.16a6.82,6.82,0,0,1-2,.14H35.9l0-.09a11.54,11.54,0,0,0-.82-1.4,9,9,0,0,1-1-1.8L34,16.73l.2,0c.07,0,.08,0,.09,0h.39c.45.15,1,.33,1.44.52l.49.2c.37.15,1.22.45,1.22.45l.32.32a2.29,2.29,0,0,1,.74.37l.29.18c.37.22.92.55.71,1.11m.44.45a.35.35,0,0,1,.15,0,.39.39,0,0,1,.23.13h.17v.17a4.05,4.05,0,0,1-.49,1.95A5.5,5.5,0,0,0,40,23.64a3,3,0,0,0,0,.34,1.77,1.77,0,0,1-.1.59l0,.07-.07,0a3.7,3.7,0,0,1-1.65.34L38,25l-1,.27a11.56,11.56,0,0,1-2.55.51h-.11l-.05-.1c-.32-.65.15-.92.47-1.1l.24-.15a2,2,0,0,0,.31-.34,3,3,0,0,1,.54-.36c.21-.17.31-.34.54-.46a4.82,4.82,0,0,0,.65-.38c.38-.28.82-.68,1.24-1.06s.66-.59,1-.83a3.64,3.64,0,0,1,.55-.35,5.35,5.35,0,0,0,.6-.39m-5.78,12.9.36-.12.07.05a17.56,17.56,0,0,1,1.63,1.4,15.07,15.07,0,0,0,2.07,1.71,8.64,8.64,0,0,0,1,1l.34.33c.21.21.42.42.65.61a1.28,1.28,0,0,0,.2.12.82.82,0,0,1,.53.68v.09H36.26a2.42,2.42,0,0,1-.67-.83l-.08-.14V38a9,9,0,0,0-.5-2.78,15.36,15.36,0,0,1-.46-1.95Zm7.09,5c-.09-.42-.21-.81-.32-1.19a7.94,7.94,0,0,1-.4-1.77l.16-.19a3.13,3.13,0,0,0,1.51-.7,6.18,6.18,0,0,1,1.15-.68l.24.12a.66.66,0,0,1,0,.31c0,.23,0,.14.13.27v.34a6.56,6.56,0,0,0-.44.83,4.19,4.19,0,0,1-.55,1.5v0l-.19.29a1.55,1.55,0,0,0-.41.43c-.18.3-.83.51-.83.51Zm2.89-5.73,0,.13c-.2.69-1.07.95-1.92,1.2a3.43,3.43,0,0,0-1.75.86l-.08.11-.13-.05c-.55-.22-2.69-1.06-3.1-1.13l-.11,0-.08-.08a1.76,1.76,0,0,0-.6-.34,1.59,1.59,0,0,1-1-.84l-.08-.19.2-.05A6.81,6.81,0,0,1,38.31,32a8.47,8.47,0,0,0,1.33.07h.09l.06.06a.3.3,0,0,0,.2.11c.09,0,.47,0,.58,0h0c.37,0,.71,0,1,0a9.32,9.32,0,0,0,1.65,0,2.72,2.72,0,0,1,.69,0,1.15,1.15,0,0,1,.4.13Zm1-1.88,0,.1-.07.07a.9.9,0,0,0-.17.47,1.64,1.64,0,0,1-.14.46l-.08.11-.13,0a2.85,2.85,0,0,1-1.55-1,4.22,4.22,0,0,0-.86-.71L42.38,30s-.39-.13-.33-.24l.09-.31c.1-.4.71-.51,1.1-.65l.27-.1a5,5,0,0,0,.63-.34,2.57,2.57,0,0,1,1.2-.47h.14l0,.13a2.53,2.53,0,0,1,0,1.3,2.13,2.13,0,0,0,0,1.22m-2.87,8.54a2.2,2.2,0,0,1,.38-1c.18-.31.19.29.18-.06l0-.16.41-.92s0,0,.09,0a.79.79,0,0,1,.27-.11H44a9.48,9.48,0,0,1,1.92.8l0,0,0,0a.83.83,0,0,1,.06.72,1.07,1.07,0,0,0,0,.28v.06l0,0c-.06.09-.11.19-.17.28Zm16.91,0H46.72l.34-.64a2.34,2.34,0,0,1,.56-1.14c.17-.52.36-1,.55-1.55a13,13,0,0,0,1.13-6.25,3.84,3.84,0,0,0,.06-1.19,5,5,0,0,1,0-1.1l0-.07a1,1,0,0,1-.14-.34v0l0,0a2,2,0,0,0,.08-.51,2.13,2.13,0,0,1,.11-.64l0-.05.62-.38c1-.62,2.17-1.32,3.2-2a.45.45,0,0,0-.35-.21,2.55,2.55,0,0,0-.77.07L52,23a2,2,0,0,1-.59,0,2.56,2.56,0,0,0-.44,0,10.33,10.33,0,0,0-1.89.36h0l0,0c-.54-.17-.81-.69-1.07-1.2a5.38,5.38,0,0,0-.41-.72.37.37,0,0,0-.09-.07.48.48,0,0,1-.26-.45.45.45,0,0,0,0-.07,8.35,8.35,0,0,0-.69-1.35,2,2,0,0,0-.39-.38,2.23,2.23,0,0,1-.46-.46,1.37,1.37,0,0,1-.13-.26,1.15,1.15,0,0,0-.15-.3,10.59,10.59,0,0,0-1.72-1.59L43,15.92c-.81-.65-1.57-1.27-2.36-1.79a19.1,19.1,0,0,0-1.83-1.07c-.14-.08-.28-.16-.41-.25-1.1-.09-2.28-1-3.56-1.08l-1-.12h0l-.51-.09a2,2,0,0,0-.51,0,4.47,4.47,0,0,1-1-.05l-.37-.06L31,11.32l-.16,0a7.49,7.49,0,0,0-1.16,0c-.27,0-.54,0-.84,0h-.44a2.27,2.27,0,0,0-1.54.31,20.22,20.22,0,0,1-1.51-2,15.4,15.4,0,0,0-1.31-2c-.1,0-.12.09-.16.2a.75.75,0,0,1-.13.24,2.68,2.68,0,0,0,0,.65c0,.11,0,.23.05.36a6.39,6.39,0,0,1,0,.8,5.52,5.52,0,0,0,0,.75,5.77,5.77,0,0,1,.05,1c0,.17,0,.34,0,.55v.13l-.12,0a24.55,24.55,0,0,0-4.09,2.42c-.57.39-1.44,1-1.8,1a3.56,3.56,0,0,1-.61.93,4.5,4.5,0,0,0-.56.6,15.71,15.71,0,0,0-3.56,5c-.07.15-.36.29-.36.45,0,.76-.15.47-.26.69A11.47,11.47,0,0,0,11.8,28a.44.44,0,0,1-.12.28.14.14,0,0,0,0,.14,1.38,1.38,0,0,0,0,.57c0,.09,0,.17,0,.26a4.19,4.19,0,0,1-.12,1.33,4.26,4.26,0,0,0-.13,1.14,1.67,1.67,0,0,0,.13.46,2.54,2.54,0,0,1,.15.47,5,5,0,0,1,0,.58,3,3,0,0,0,.15,1l0,.11-.09.08a8,8,0,0,1-1.68,1.11,6.53,6.53,0,0,0-1.77,1.23.54.54,0,0,1,0,.29l.15,0a3.7,3.7,0,0,0,1.19.06A9.21,9.21,0,0,1,11.63,37a10.94,10.94,0,0,1,1.52,0v0A5.89,5.89,0,0,0,13.91,39l0,.08H7.61a1.39,1.39,0,0,0,0-.38V38.6a4.16,4.16,0,0,0-.14-1.2l0-.17a4.34,4.34,0,0,1,0-1.48,3.52,3.52,0,0,0,0-1.19l-.09,0a2.8,2.8,0,0,0-1,.18l-.19.06c-.46.52-.27,1.24,0,2.15.06.23.12.47.17.72a1.33,1.33,0,0,1,0,.53.72.72,0,0,0,.1.61l.19.26H6.17c-.4-.08-.9-1.56-1.29-2.27-.22-.39-.58-1-.74-1.06s-.26.74-.34,1.15a14.06,14.06,0,0,1-.38,2.18H2.79a13,13,0,0,1-1.48-3.12,1.92,1.92,0,0,0-.54.17,2.86,2.86,0,0,1-.53.18,1.45,1.45,0,0,1-.24.46,5,5,0,0,0,.95,1.6c.16.25.31.48.44.71H.66v1.34H59.52Z"/>5.58,4.83c3.5.74,4.33,1.62,4.33,3.19S78,38.65,75.78,38.65a7.93,7.93,0,0,1-5.71-2.35l-1.16,1.38a9.73,9.73,0,0,0,6.8,2.66c3.31,0,5.68-1.86,5.68-4.73,0-2.57-1.71-3.93-5.42-4.73s-4.52-1.67-4.52-3.26"/></g></g></svg>